<svg xmlns="http://www.w3.org/2000/svg" viewBox="0 0 128 128">
  <defs>
    <linearGradient id="g" x1="0" y1="0" x2="1" y2="1">
      <stop offset="0" stop-color="#0EA5E9"/>
      <stop offset="1" stop-color="#2DD4BF"/>
    </linearGradient>
  </defs>
  <rect x="10" y="10" width="108" height="108" rx="28" fill="#0b1220" stroke="url(#g)" stroke-width="6"/>
  <path d="M44 48c0-6 5-10 12-10h16c7 0 12 4 12 10v6c0 7-5 12-12 12h-16c-7 0-12-5-12-12v-6z" fill="url(#g)" opacity="0.95"/>
  <path d="M40 55l-10 9v22c0 8 6 14 14 14h40c8 0 14-6 14-14V64l-10-9" fill="none" stroke="#eaf0ff" stroke-width="6" stroke-linecap="round" opacity="0.9"/>
  <path d="M50 86h28" stroke="#eaf0ff" stroke-width="6" stroke-linecap="round" opacity="0.9"/>
</svg>